<?xml version="1.0" encoding="UTF-8"?><svg id="Calque_1" xmlns="http://www.w3.org/2000/svg" xmlns:xlink="http://www.w3.org/1999/xlink" viewBox="0 0 1730.36 613"><defs><style>.cls-1{fill:#11497c;}.cls-2{fill:url(#Dégradé_sans_nom_21);}</style><linearGradient id="Dégradé_sans_nom_21" x1="-14.55" y1="343.12" x2="513.12" y2="250.08" gradientUnits="userSpaceOnUse"><stop offset="0" stop-color="#11497c"/><stop offset=".62" stop-color="#11497c"/><stop offset=".65" stop-color="#11497c" stop-opacity=".96"/><stop offset=".7" stop-color="#11497c" stop-opacity=".85"/><stop offset=".74" stop-color="#11497c" stop-opacity=".67"/><stop offset=".78" stop-color="#11497c" stop-opacity=".41"/><stop offset=".83" stop-color="#11497c" stop-opacity=".08"/><stop offset=".84" stop-color="#11497c" stop-opacity="0"/></linearGradient></defs><path class="cls-1" d="m552.58,22.69v27.74h-68.01v103.33c0,34.38-27.89,62.22-62.27,62.11V50.44h-66.57v-27.74h196.84Zm-130.27,317.59v10.9c.25,53.92,52.2,153.62,6.52,195.16-.26.24-.53.45-.79.68,36.92-33.89,56.27-85.51,56.54-166.63v-114.17l-14.69,5.46c-28.67,10.67-47.45,38-47.57,68.6Z"/><path class="cls-2" d="m346.42,590.33c-8.2,5.48-66.05,22.81-110.89,22.67-60.46-.2-111.67-10.41-147.3-29.78C25.14,547.31-.28,477.69,0,391.58L1.23,22.69h165.1l-1.28,388.69c-.61,185.09,111.61,187.68,181.37,178.95Zm75.89-239.15v47.06c-.3,90.29-20.52,164.6-75.06,191.63-.28.14-.54.32-.82.46.84-.25,1.62-.55,2.46-.81,3.86-1.07,14.41-4.25,27.8-10.16,1.17-.52,2.35-1.04,3.57-1.6,2.26-1.02,4.43-2.11,6.62-3.19,5.16-2.59,10.55-5.59,16-8.93,1.75-1.07,3.44-2.2,5.13-3.32,4.62-3.04,9.23-6.29,13.74-9.93,2.13-1.76,4.26-3.51,6.29-5.37.26-.23.53-.44.79-.68,45.69-41.53-6.27-141.24-6.52-195.16Z"/><path class="cls-1" d="m718.55,313.1h-1.53c-5.24,17.69-17.48,29.93-35.83,29.93-23.6,0-37.36-19-37.36-53.74s13.98-54.63,38.02-54.4c18.57-.23,29.93,11.58,35.17,29.49h1.53v-64.44h23.37v140.26h-23.37v-27.09Zm0-19.67v-7.85c0-17.71-10.27-29.5-26.22-29.5-17.05,0-25.34,10.7-25.34,33.21s7.87,32.77,25.34,32.77c15.73,0,26.22-11.15,26.22-28.62Zm41.95-3.27c0-34.74,19.67-55.27,51.78-55.27s46.1,18.78,46.1,46.96c0,3.94,0,8.52-.43,13.77h-74.07c1.75,18.57,11.15,27.97,28.62,27.97,16.38,0,22.06-7.87,24.9-17.69l20.1,5.67c-4.8,18.57-17.69,31.25-45.22,31.25-31.46,0-51.78-18.35-51.78-52.65Zm23.6-10.27h52.66c-.87-17.69-8.74-26.88-25.12-26.88s-25.34,8.52-27.53,26.88Zm125.42-70.79h105.74v22.94h-40.42v108.15h-24.9v-108.15h-40.42v-22.94Zm106.41,79.53c0-33.87,20.32-53.74,52.21-53.74s51.78,19.87,51.78,53.74-19.23,54.4-51.78,54.4-52.21-20.75-52.21-54.4Zm23.6-.22c0,21.19,8.74,34.3,28.4,34.3s28.62-13.11,28.62-34.3-9.61-33.65-28.62-33.65-28.4,12.45-28.4,33.65Zm168.01,24.69h-2.18c-5.68,19.01-18.79,29.93-35.83,29.93-21.63,0-31.9-14.64-31.9-36.92v-68.61h23.6v62.49c0,12.45,5.46,21.63,19.45,21.63,15.95,0,26.22-10.49,26.22-26v-58.12h23.6v102.69h-22.94v-27.09Zm71.67,27.09h-23.6v-140.26h23.6v140.26Zm19.23-51.56c0-33.87,20.32-53.74,52.21-53.74s51.78,19.87,51.78,53.74-19.23,54.4-51.78,54.4-52.21-20.75-52.21-54.4Zm23.6-.22c0,21.19,8.74,34.3,28.4,34.3s28.62-13.11,28.62-34.3-9.61-33.65-28.62-33.65-28.4,12.45-28.4,33.65Zm168.01,24.69h-2.18c-5.68,19.01-18.79,29.93-35.83,29.93-21.63,0-31.9-14.64-31.9-36.92v-68.61h23.6v62.49c0,12.45,5.46,21.63,19.45,21.63,15.95,0,26.22-10.49,26.22-26v-58.12h23.6v102.69h-22.94v-27.09Zm40.21-3.28l21.19-4.37c3.28,12.45,10.49,20.33,27.09,20.33,12.45,0,19.01-4.38,19.01-13.12,0-8.08-5.69-12.01-26-15.73-27.31-5.46-36.92-14.63-36.92-31.68,0-18.57,13.54-30.36,40.85-30.36s37.8,11.58,41.95,29.71l-21.2,4.59c-2.84-12.68-8.95-17.48-21.19-17.48s-18.14,4.59-18.14,12.23c0,7.21,4.37,12.23,23.82,15.73,30.37,5.67,39.55,15.95,39.55,32.12,0,19-12.68,31.23-42.17,31.23-33.21,0-44.13-13.54-47.84-33.21Zm102.25-19.66c0-34.74,19.67-55.27,51.78-55.27s46.1,18.78,46.1,46.96c0,3.94,0,8.52-.43,13.77h-74.07c1.75,18.57,11.15,27.97,28.62,27.97,16.38,0,22.06-7.87,24.9-17.69l20.1,5.67c-4.8,18.57-17.69,31.25-45.22,31.25-31.46,0-51.78-18.35-51.78-52.65Zm23.6-10.27h52.66c-.87-17.69-8.74-26.88-25.12-26.88s-25.34,8.52-27.53,26.88Z"/><path class="cls-1" d="m737.33,102.46V23.15h24.69v81.06c0,34.08-19.23,52.65-54.84,52.65s-56.59-18.35-56.59-52.65V23.15h24.91v78.65c0,19.66,7.43,32.99,31.68,32.99s30.14-12.45,30.14-32.33Z"/><path class="cls-1" d="m810.75,154.24h-23.38V51.55h22.94v27.1h1.97c5.68-19.01,18.79-29.71,36.05-29.71,21.41,0,31.68,14.41,31.68,36.7v68.6h-23.38v-62.49c0-12.45-5.46-21.62-19.66-21.62-15.73,0-26.22,10.49-26.22,26v58.11Z"/><rect class="cls-1" x="903.82" y="15.07" width="25.56" height="19"/><rect class="cls-1" x="904.7" y="51.55" width="23.6" height="102.69"/><path class="cls-1" d="m1010.23,91.32c-4.59,14.2-9.39,28.84-13.33,42.82h-4.37c-3.93-13.98-8.74-28.18-13.33-42.82l-12.67-39.77h-25.57l38.02,102.69h31.02l37.8-102.69h-24.9l-12.67,39.77Z"/><path class="cls-1" d="m1104.83,48.94c-32.12,0-51.77,20.53-51.77,55.27s20.31,52.65,51.77,52.65c27.53,0,40.42-12.68,45.23-31.25l-20.1-5.68c-2.84,9.83-8.52,17.7-24.91,17.7-17.48,0-26.87-9.4-28.62-27.96h74.06c.44-5.24.44-9.83.44-13.77,0-28.18-15.07-46.97-46.1-46.97Zm-28.18,45c2.18-18.35,11.58-26.88,27.52-26.88s24.25,9.18,25.13,26.88h-52.65Z"/><path class="cls-1" d="m1194.19,82.58l-1.97-.22v-30.81h-22.29v102.69h23.38v-48.72c0-20.98,7.64-28.62,29.27-28.62h5.69v-26.44h-3.72c-14.86,0-24.47,7.22-30.37,32.12Z"/><path class="cls-1" d="m1287.49,93.72c-19.44-3.5-23.81-8.52-23.81-15.73,0-7.65,6.12-12.23,18.13-12.23s18.35,4.8,21.19,17.48l21.19-4.59c-4.15-18.14-13.77-29.71-41.95-29.71s-40.86,11.79-40.86,30.36c0,17.05,9.61,26.22,36.92,31.68,20.32,3.72,26,7.65,26,15.73,0,8.74-6.55,13.12-19,13.12-16.61,0-23.82-7.87-27.09-20.33l-21.19,4.37c3.72,19.67,14.64,33.21,47.85,33.21,29.5,0,42.16-12.24,42.16-31.23,0-16.17-9.17-26.44-39.54-32.12Z"/><rect class="cls-1" x="1345.61" y="15.07" width="25.56" height="19"/><rect class="cls-1" x="1346.48" y="51.55" width="23.59" height="102.69"/><path class="cls-1" d="m1439.56,135.01c-10.27,0-13.98-5.24-13.98-15.3v-49.15h30.15v-19.01h-30.15v-27.74h-23.59v27.74h-14.42v19.01h14.42v52.43c0,19.23,9.61,34.08,32.12,34.08,10.26,0,15.51-1.3,23.16-3.71l-2.83-20.97c-5.03,1.53-9.61,2.62-14.86,2.62Z"/><path class="cls-1" d="m1565.83,95.9c0-28.18-15.07-46.97-46.1-46.97s-51.78,20.53-51.78,55.27,20.32,52.65,51.78,52.65c27.53,0,40.42-12.68,45.22-31.25l-20.1-5.68c-2.84,9.83-8.52,17.7-24.9,17.7-17.48,0-26.88-9.4-28.63-27.96h74.07c.43-5.24.43-9.83.43-13.77Zm-74.28-1.96c2.19-18.35,11.58-26.88,27.53-26.88s24.25,9.18,25.12,26.88h-52.65Z"/><polygon class="cls-1" points="1556.66 16.82 1547.93 0 1496.79 29.49 1502.7 41.06 1556.66 16.82"/></svg>